<?xml version="1.0" encoding="UTF-8"?>
<svg id="_圖層_1" data-name="圖層 1" xmlns="http://www.w3.org/2000/svg" viewBox="0 0 1000 1000">
  <defs>
    <style>
      .cls-1 {
        fill: #ae5922;
      }
    </style>
  </defs>
  <g>
    <path class="cls-1" d="M597.68,518.13c2.03-1.98,6.84-2.44,9.67-2.75,5.02-.56,14.95-1.22,19.75-.66,10.3,1.21,2.97,12.28,1.77,17.08-3.09,12.31-1.47,39.13-.85,52.7.41,8.99.95,24.31,3.82,32.48,1.14,3.23,4.65,7.13,4.53,10.15-.17,4.3-6.95,6.77-9.09,10.71-.86,1.58-2.14,6.02-2.35,7.84-.77,6.67,2.62,14-7.99,12.31-5.71-.91-4.15-9.86-4.96-14.14-1.58-8.32-6.13-8.49-10.04-13.53-4.84-6.23.07-9.99,1.73-15.46,2.6-8.6,2.24-38.35,1.48-48.25-.14-1.82-.57-3.62-.97-5.4l-1.62-.33c-5.09,2.77-14.17,47.41-16.85,55.76-1.19,3.71-3.69,13.33-8.96,8.31-4.71-4.49-8.33-31.24-10.15-38.89-1.11-4.69-5.47-21.3-7.91-24.43-1.4-1.79-2.95-.02-3.18,1.88-1.48,11.98-1.04,37.05,1.5,48.7,1.46,6.68,10.42,17.35-1.94,19.03-8.27,1.12-20.95-2.6-27.87,1.42-8.99,5.22-1.6,20.38-12.22,20.95-9.63.52-6.11-8.79-9.29-14.92-2.51-4.83-8.23-7.23-9.32-13.6-1.18-6.89,2.95-9.11,3.62-14.56,1.91-15.55-22.76-18.6-24.14-2.48-.7,8.16,6.77,13.91.62,21.65s-21.78.16-27.73,4.12c-1.64,1.09-3.66,6.19-3.96,8.14-.82,5.24,2.55,16.56-6.15,15.44-5.57-.72-3.79-8.45-4.27-12.34-.83-6.79-7.17-14.36-9.78-21.43s-8.37-34.36-11.17-37.87c-2.21-2.78-3.98-.9-4.43,1.95-.73,4.6-.42,16.66-.06,21.64s3.42,12.91,3.08,16.99c-.45,5.36-6.86,8.45-9.31,13.03-2.58,4.82-1.32,9.78-9.2,8.33-5.61-1.03-4.11-7.82-6.83-11.63-4.53-6.36-15.92-3.21-19.64,2.65-2.33,3.68-1.52,9.14-7.43,9.14-7.06,0-6.19-8.81-8.71-13.59-3-5.69-9.87-5.56-8.65-13.33.55-3.5,3.33-6.75,3.67-10.34.56-5.87-2.36-12.13-8.65-13-8.74-1.2-15.18,2.49-15.57,11.76-.24,5.67,4.02,8.37,3.88,13.99-.2,8.38-5.1,14.19-5.76,21.66-.81,9.02,1.09,18.1.35,27.1-1.52,7.49-12.46,7.22-15.37,1.27-3.43-7.01.52-13.96.98-20.74.38-5.69-2.32-16.24-6.66-20.07-3-2.65-7.42-2.44-4.04-7.84,3.59-5.74,4.71-6.47,6.85-13.53,6.97-23.03,10.85-48.04,17.17-71.36,1.96-11.2-8.81-19.66,6.95-23.62,6.15-1.54,19.86-2.71,25.42.31,6.44,3.51,5.2,18.05,6.01,24.56,2.02,16.26,10.96,58.69,17.73,72.71,3.61,7.46,5.88,7.06,7.97-.96,3.83-14.67,2.12-36.4,2.2-51.94.05-9.3,1.56-19.34-2.21-28.31-1.63-3.88-5.84-6.51-6.07-10.54-.25-4.45,2.63-6.31,6.68-6.7,10.55-1.02,38.93-.97,48.11,2.91,18.88,7.99,22.81,38.75,9.89,53.18-1.74,1.94-6.15,4.14-6.05,6.6l16.24,39.89c1.14.31,2.18-3.52,2.52-4.49,6.33-18.21,12.39-45.03,16.07-64.18.77-4.03,2.14-9.85,2.1-13.81s-2.93-8.09-2.57-12.1c.42-4.74,4.33-6.46,8.41-7.54,7.03-1.86,24.33-3.27,29.1,3.17,2.91,3.94,2.57,14.13,3.46,19.46,3.14,18.69,9.24,52.16,16.47,68.88,1.25,2.89,4.86,12.77,8.03,7.57,4.65-7.63,3.73-38,3.96-48.27.24-10.81,2.55-26.61-1.39-36.77-1.84-4.74-9.63-11.19.26-14.04,6.21-1.79,27.32-1.69,32.06,2.74,5.63,5.25,6.77,33.63,9.53,42.7,2.19,7.18,4.9,4.84,6.88-.79,3.17-9.03,5.7-37.29,10.86-42.32ZM420.21,563.58c3.16-3.57,3.08-16.41,1.96-21-1.65-6.79-12.14-13.07-13.23-3.33-.88,7.84.54,17.33.13,25.35l1.14,1.4c2.24,1.1,8.38-.6,10-2.42ZM328.21,580.18c1.82,1.83,12,2.75,12.59-1.47-1.21-7.8-2.14-16.26-4.13-23.87-.41-1.55-.52-3.46-1.98-4.41-2.55-.75-3.33,4.62-3.77,6.32-1.29,5.04-3.3,14.46-3.51,19.46-.05,1.1.03,3.18.8,3.96ZM489.11,550.49l-2.36.02c-3.5,8.5-4.25,17.95-5.74,26.99.17,5.49,13.57,5.81,13.89.57.19-3.13-2.57-15.61-3.45-19.41-.64-2.75-1.37-5.51-2.33-8.17Z"/>
    <path class="cls-1" d="M498.11,704.85c-.28-3.46-1.43-8.13-2.54-11.47-1.96-5.89-13.28-20.06-2.46-23.46,4.99-1.57,20.8-1.62,26.32-1.05,13.36,1.39,4.36,12.98,2.55,20.37-2.28,9.31-2.59,23.65-2.89,33.42-.6,19.95,2.41,42.58.69,61.83-.74,8.23-5.55,10.03-13.06,10.51-8.34.53-11.66.15-15.96-7.02-11.99-20-20.58-44.39-32.03-64.78-.46-.82-.98-1.5-1.72-2.09-1.16.76-.9,1.69-.98,2.82-1.01,13.25-.25,38.36,4.02,50.81,1.73,5.04,7.02,9.55,5.27,15.18-.76,2.44-4.08,4.04-6.46,4.37-4.64.63-22.39.56-26.36-.91-9.31-3.43-2.71-11.63-.83-17.37,1.41-4.32,2.03-8.73,2.72-13.2-.62-18.8,2.51-40.04,1.28-58.58-.28-4.13-1.15-9.5-2.52-13.41-3.56-10.21-16.03-20.52,4.12-21.94,5.99-.42,17.82-.71,23.57-.02s8.15,8.52,10.4,13.16c7.12,14.67,14.99,36.57,24.65,49.23.66.86,2.19,1.93,2.19.36,0-8.5.67-18.47,0-26.75Z"/>
    <path class="cls-1" d="M337.48,669.05c6.3-.59,25.03-1.03,30.32,1.14,9.08,3.73,1.7,13.92-.27,19.35-1.17,3.23-2.25,7.45-2.52,10.85-1.12,13.72-1.12,37.87-.03,51.6.48,6.1,4.3,14.75,11.15,15.59,11.81,1.45,16.66-6.29,17.52-16.9,1.08-13.23,1-35.74,0-49.02-.29-3.81-1.33-8.38-2.69-11.96-2.35-6.16-7.62-10-3.81-17.49,1.61-3.16,7.2-3.19,10.62-3.39,4.87-.29,20.03-1.09,22.5,3.67,3.28,6.31-4.92,18.73-5.59,26.62-2.97,35.32,14.54,99.34-42.36,97.11-57.48-2.25-29.76-73.93-40.28-108.11-1.03-3.33-5.29-9.77-5.3-11.94-.01-5.94,6.22-6.71,10.74-7.13Z"/>
    <path class="cls-1" d="M665.19,632.77c-1.08,1.05-3.07,5.23-3.71,6.8-1.75,4.35-2.58,15.22-9.86,10.47-3.17-2.07-3.09-12.2-7.13-17.07-2.64-3.19-7.4-3.11-5.15-8.54.55-1.33,2.21-2.2,2.98-3.38,2.95-4.54,3.3-11.42,3.57-16.81.9-18.23,1.32-44.44-.04-62.44-.3-3.95-1.47-8.79-2.72-12.56-1.64-4.95-7.73-12.84,1.76-13.9,9.29-1.04,20.29.99,29.97.68,5.91-.19,12.33-1.52,18.31-1.16,7.24,1.66,8.7,19.7,8.08,25.65-.46,4.44-2.41,8.57-7.62,6.36-2.07-.88-5.83-7.96-8.97-10.14-3.9-2.71-12.43-5.03-14.93.28-1.59,3.37-1.54,18.79.19,22.1,1.52,2.91,4.1,3.89,7.3,3.23,4.42-.91,8.19-10.25,12.05-2.85,2.31,4.43,1.89,18.69.33,23.51-.93,2.86-2.3,4.91-5.72,4.21-3.06-.63-4.08-6.66-6.85-7.83s-5.82-.31-7.26,2.27c-1.24,2.23-1.73,11.3-1.67,14.31.04,2.17.79,9.41,1.67,11.07,2.98,5.62,10.54,2.73,14.49-.06,4.52-3.19,11.54-14.74,17.16-13.16,4,1.13,3.28,12.65,3.04,16.16-1.23,17.83-11.83,28.53-10.21,49.64.54,6.98,5.79,19.99-.32,25.18-3.9,3.31-10.06,3.63-12.85-1.18-3.36-5.82-.06-12.26.41-18.26.63-8.17.39-29.15-7.92-33.45-2.9-1.5-5.98-1.48-8.41.88Z"/>
    <path class="cls-1" d="M266.8,514.27c6.34-.29,11.89,2.73,17.08,2.98,2.53.12,5-.97,8.14-.55,11.89,1.6,11.99,24.65,9.11,33.2-1.95,5.81-6,9.38-12.38,7-7.89-2.95-8.79-27.7-21.41-19.14-12.58,8.53-10.6,47.48-4.36,59.56,3.88,7.51,11.36,8.33,18.16,3.92,5.95-3.87,7.54-18.18,16.52-13.76,8.02,3.94,1.13,22.62-2.58,28.34-7.81,12.05-24.1,16.99-25.54,32.42-.63,6.7,2.34,16.09-4.72,20.11-3.21,1.83-8.54,2.08-11.51-.22-5.57-4.32-1.24-21.43-1.66-28.28-1.08-17.99-14.03-23.28-19.15-38.81-8.78-26.63-1.98-85.14,34.3-86.79Z"/>
    <path class="cls-1" d="M594.74,669c19.05.3,38.15.85,57.22.53,5.88-.1,13.28-3.13,16.97,3.35,3.79,6.66,7.57,30.87,4.19,37.56-2.04,4.05-7.98,4.22-10.7.79-3.29-4.16-4.85-22.68-14.03-19.8-3.82,1.2-4.25,8.06-4.46,11.48-1.02,16.21-.83,38.53,0,54.83.31,6.12,1.16,13.74,3.54,19.39,2.17,5.17,10.23,12.15,2.04,16.07-6.27,3-31.05,2.32-37.72-.13-11.75-4.3-2.14-11.33.35-18.77,4.45-13.3,4.41-58.16,3.15-73.26-.95-11.37-7.06-13.51-13-3.46-2.23,3.78-4.37,12.51-7.05,14.61-2.97,2.32-7.94,1.91-9.8-1.68-3.46-6.69,1.12-29.14,4.47-36.13,1.1-2.3,2.14-4.58,4.82-5.37Z"/>
    <path class="cls-1" d="M752.01,605.58c4.6-4.37,7.96-15.38,11.09-17.89,4.73-3.81,8.41,1.1,8.87,5.71.85,8.39-.92,29.3-5.84,36.18-7.57,10.6-19.36.74-29.5,1.03-7.2.2-20.89,8.66-26.39,3.51-7.07-6.61,1.82-24.67,2.5-33.1,1.34-16.41,2.21-45.11-.06-61.06-1.28-8.94-3.11-8.41-6.83-14.83-2.81-4.86-1.07-9.27,4.64-9.8,6.8-.62,15.31.09,22.35.06,3.42-.01,9.09-1.73,10.77,3.19,1.84,5.39-2,7.43-3.78,11.44-1.31,2.94-1.66,6.12-2.22,9.24,1,17.88-.53,37.05.63,54.76.32,4.9,1.17,16.25,8.43,14.85,1.29-.25,4.34-2.33,5.35-3.29Z"/>
    <path class="cls-1" d="M543.2,669.05c6.64-.75,17.25-.6,24.04-.22,3.1.17,9.3.54,11.45,2.56,6.17,5.77-2.21,12.45-4.27,18.05-2.77,7.53-1.49,15.26-1.76,23.07-.63,17.8-1.76,37.7-.02,55.38.79,8.02,2.97,8.7,6.07,14.95,4.41,8.91-4.91,11.7-12.09,12.16-6.69.43-18.2.17-24.81-.72-2.75-.37-7.22-2.53-7.88-5.49-1.11-4.94,2.49-7.03,4.45-10.57,2.64-4.77,3.37-10.63,3.69-16.05,1.04-17.34,1.1-41.94.04-59.26-.65-10.52-2.45-12.44-7.16-20.87-4.35-7.79.5-12.11,8.27-12.99Z"/>
  </g>
  <g>
    <circle class="cls-1" cx="504.23" cy="338.99" r="40.37"/>
    <path class="cls-1" d="M646.43,382.54c-9.4-19.36-15.23-32.22-19.33-40.81.02-.91.03-1.83.03-2.75,0-13.21-2.07-25.93-5.89-37.87l14.47-17.59c1.42-1.72,1.52-4.17.24-6.01l-30.63-44.09c-1.32-1.89-3.76-2.64-5.91-1.79l-21.42,8.41c-10.94-8.31-23.29-14.84-36.64-19.18l-4.36-19.12c-.52-2.27-2.53-3.87-4.86-3.87h-58.66c-2.13,0-4.02,1.35-4.71,3.37l-7.06,20.59c-11.49,4.04-22.2,9.73-31.86,16.78-.82.18-1.68.16-2.5-.09l-20.7-6.18c-1.99-.59-4.13.11-5.39,1.76l-31.3,41.17c-1.22,1.61-1.35,3.79-.33,5.53l13.96,23.87c-3.13,10.9-4.81,22.41-4.81,34.32,0,4.73.27,9.4.79,14-3.98,8.46-9.43,20.32-17.54,37.04-17.08,35.19-25.65,50.06-19.26,65.83.9,2.22,4.97,11.78,13.85,14.22,8.2,2.25,16.82-2.58,21.55-7.7,5.37-5.81,4.93-11.13,8.47-24.63,3.37-12.86,5.37-21.6,10.01-27.71.8-1.05,1.63-2.01,2.5-2.89,5.22,7.94,11.33,15.25,18.19,21.78-2.51,23.63-4.71,52.46,9.52,64.7,5.22,4.49,13.96,8.23,20.01,5.39,11.23-5.28,2.33-28.09,11.94-43.93,13.72,5.22,28.59,8.09,44.14,8.09s30.35-2.85,44.04-8.05c9.57,15.84.7,38.62,11.92,43.89,6.05,2.85,14.79-.9,20.01-5.39,14.21-12.21,12.04-40.97,9.53-64.59,8.64-8.2,16.09-17.64,22.09-28.02.43.49.85,1,1.25,1.54,4.64,6.11,6.64,14.85,10.01,27.71,3.53,13.5,3.1,18.82,8.47,24.63,4.73,5.11,13.35,9.95,21.55,7.7,8.89-2.44,12.95-12,13.85-14.22,6.39-15.77-2.18-30.64-19.26-65.83ZM502.96,425.04c-47.53,0-86.05-38.53-86.05-86.05s38.53-86.05,86.05-86.05,86.05,38.53,86.05,86.05-38.53,86.05-86.05,86.05Z"/>
  </g>
</svg>