<?xml version="1.0" encoding="UTF-8"?>
<svg id="_圖層_1" data-name="圖層 1" xmlns="http://www.w3.org/2000/svg" xmlns:xlink="http://www.w3.org/1999/xlink" viewBox="0 0 1000 325.87">
  <defs>
    <style>
      .cls-1 {
        fill: #fae9d1;
      }

      .cls-2 {
        fill: none;
      }

      .cls-3 {
        fill: #faebd0;
      }

      .cls-4 {
        clip-path: url(#clippath-1);
      }

      .cls-5 {
        fill: #faeacf;
      }

      .cls-6 {
        clip-path: url(#clippath);
      }
    </style>
    <clipPath id="clippath">
      <rect class="cls-2" x="415.31" y="193.68" width="96.68" height="94.3"/>
    </clipPath>
    <clipPath id="clippath-1">
      <rect class="cls-2" x="838.45" y="188.78" width="96.68" height="94.3"/>
    </clipPath>
  </defs>
  <g>
    <path class="cls-5" d="M764.39,35.07c2.03-1.98,6.84-2.44,9.67-2.75,5.02-.56,14.95-1.22,19.75-.66,10.3,1.21,2.97,12.28,1.77,17.08-3.09,12.31-1.47,39.13-.85,52.7.41,8.99.95,24.31,3.82,32.48,1.14,3.23,4.65,7.13,4.53,10.15-.17,4.3-6.95,6.77-9.09,10.71-.86,1.58-2.14,6.02-2.35,7.84-.77,6.67,2.62,14-7.99,12.31-5.71-.91-4.15-9.86-4.96-14.14-1.58-8.32-6.13-8.49-10.04-13.53-4.84-6.23.07-9.99,1.73-15.46,2.6-8.6,2.24-38.35,1.48-48.25-.14-1.82-.57-3.62-.97-5.4l-1.62-.33c-5.09,2.77-14.17,47.41-16.85,55.76-1.19,3.71-3.69,13.33-8.96,8.31-4.71-4.49-8.33-31.24-10.15-38.89-1.11-4.69-5.47-21.3-7.91-24.43-1.4-1.79-2.95-.02-3.18,1.88-1.48,11.98-1.04,37.05,1.5,48.7,1.46,6.68,10.42,17.35-1.94,19.03-8.27,1.12-20.95-2.6-27.87,1.42-8.99,5.22-1.6,20.38-12.22,20.95-9.63.52-6.11-8.79-9.29-14.92-2.51-4.83-8.23-7.23-9.32-13.6-1.18-6.89,2.95-9.11,3.62-14.56,1.91-15.55-22.76-18.6-24.14-2.48-.7,8.16,6.77,13.91.62,21.65s-21.78.16-27.73,4.12c-1.64,1.09-3.66,6.19-3.96,8.14-.82,5.24,2.55,16.56-6.15,15.44-5.57-.72-3.79-8.45-4.27-12.34-.83-6.79-7.17-14.36-9.78-21.43-2.64-7.16-8.37-34.36-11.17-37.87-2.21-2.78-3.98-.9-4.43,1.95-.73,4.6-.42,16.66-.06,21.64.36,4.95,3.42,12.91,3.08,16.99-.45,5.36-6.86,8.45-9.31,13.03-2.58,4.82-1.32,9.78-9.2,8.33-5.61-1.03-4.11-7.82-6.83-11.63-4.53-6.36-15.92-3.21-19.64,2.65-2.33,3.68-1.52,9.14-7.43,9.14-7.06,0-6.19-8.81-8.71-13.59-3-5.69-9.87-5.56-8.65-13.33.55-3.5,3.33-6.75,3.67-10.34.56-5.87-2.36-12.13-8.65-13-8.74-1.2-15.18,2.49-15.57,11.76-.24,5.67,4.02,8.37,3.88,13.99-.2,8.38-5.1,14.19-5.76,21.66-.81,9.02,1.09,18.1.35,27.1-1.52,7.49-12.46,7.22-15.37,1.27-3.43-7.01.52-13.96.98-20.74.38-5.69-2.32-16.24-6.66-20.07-3-2.65-7.42-2.44-4.04-7.84,3.59-5.74,4.71-6.47,6.85-13.53,6.97-23.03,10.85-48.04,17.17-71.36,1.96-11.2-8.81-19.66,6.95-23.62,6.15-1.54,19.86-2.71,25.42.31,6.44,3.51,5.2,18.05,6.01,24.56,2.02,16.26,10.96,58.69,17.73,72.71,3.61,7.46,5.88,7.06,7.97-.96,3.83-14.67,2.12-36.4,2.2-51.94.05-9.3,1.56-19.34-2.21-28.31-1.63-3.88-5.84-6.51-6.07-10.54-.25-4.45,2.63-6.31,6.68-6.7,10.55-1.02,38.93-.97,48.11,2.91,18.88,7.99,22.81,38.75,9.89,53.18-1.74,1.94-6.15,4.14-6.05,6.6l16.24,39.89c1.14.31,2.18-3.52,2.52-4.49,6.33-18.21,12.39-45.03,16.07-64.18.77-4.03,2.14-9.85,2.1-13.81s-2.93-8.09-2.57-12.1c.42-4.74,4.33-6.46,8.41-7.54,7.03-1.86,24.33-3.27,29.1,3.17,2.91,3.94,2.57,14.13,3.46,19.46,3.14,18.69,9.24,52.16,16.47,68.88,1.25,2.89,4.86,12.77,8.03,7.57,4.65-7.63,3.73-38,3.96-48.27.24-10.81,2.55-26.61-1.39-36.77-1.84-4.74-9.63-11.19.26-14.04,6.21-1.79,27.32-1.69,32.06,2.74,5.63,5.25,6.77,33.63,9.53,42.7,2.19,7.18,4.9,4.84,6.88-.79,3.17-9.03,5.7-37.29,10.86-42.32ZM586.92,80.52c3.16-3.57,3.08-16.41,1.96-21-1.65-6.79-12.14-13.07-13.23-3.33-.88,7.84.54,17.33.13,25.35l1.14,1.4c2.24,1.1,8.38-.6,10-2.42ZM494.92,97.12c1.82,1.83,12,2.75,12.59-1.47-1.21-7.8-2.14-16.26-4.13-23.87-.41-1.55-.52-3.46-1.98-4.41-2.55-.75-3.33,4.62-3.77,6.32-1.29,5.04-3.3,14.46-3.51,19.46-.05,1.1.03,3.18.8,3.96ZM655.82,67.43l-2.36.02c-3.5,8.5-4.25,17.95-5.74,26.99.17,5.49,13.57,5.81,13.89.57.19-3.13-2.57-15.61-3.45-19.41-.64-2.75-1.37-5.51-2.33-8.17Z"/>
    <path class="cls-5" d="M671.76,217.85c-.24-2.95-1.22-6.93-2.17-9.78-1.67-5.02-11.33-17.11-2.09-20,4.26-1.34,17.74-1.38,22.45-.89,11.39,1.18,3.72,11.07,2.17,17.37-1.94,7.94-2.21,20.17-2.46,28.5-.51,17.01,2.06,36.31.59,52.73-.63,7.02-4.73,8.55-11.14,8.96-7.11.45-9.95.13-13.61-5.99-10.22-17.06-17.55-37.85-27.31-55.25-.39-.7-.84-1.28-1.47-1.78-.99.65-.77,1.44-.84,2.41-.86,11.3-.21,32.72,3.43,43.33,1.48,4.3,5.98,8.15,4.49,12.94-.65,2.08-3.48,3.45-5.51,3.72-3.96.54-19.09.47-22.48-.78-7.94-2.93-2.31-9.92-.71-14.81,1.21-3.68,1.73-7.44,2.32-11.25-.53-16.04,2.14-34.15,1.09-49.96-.24-3.52-.98-8.1-2.15-11.43-3.04-8.71-13.67-17.5,3.51-18.71,5.11-.36,15.19-.6,20.1-.02s6.95,7.27,8.87,11.22c6.07,12.51,12.78,31.19,21.02,41.98.56.74,1.87,1.65,1.87.31,0-7.24.57-15.75,0-22.81Z"/>
    <path class="cls-5" d="M534.78,187.32c5.37-.51,21.35-.88,25.86.97,7.75,3.18,1.45,11.87-.23,16.5-1,2.75-1.92,6.35-2.15,9.25-.96,11.7-.95,32.29-.03,44,.41,5.2,3.67,12.58,9.51,13.3,10.07,1.24,14.2-5.37,14.94-14.41.92-11.28.85-30.48,0-41.81-.24-3.25-1.13-7.15-2.3-10.2-2.01-5.26-6.5-8.53-3.25-14.91,1.37-2.69,6.14-2.72,9.06-2.89,4.16-.25,17.08-.93,19.19,3.13,2.79,5.38-4.2,15.97-4.76,22.7-2.53,30.12,12.4,84.71-36.12,82.81-49.01-1.92-25.38-63.04-34.35-92.2-.87-2.84-4.51-8.33-4.52-10.18,0-5.07,5.31-5.72,9.16-6.08Z"/>
    <path class="cls-5" d="M831.91,149.71c-1.08,1.05-3.07,5.23-3.71,6.8-1.75,4.35-2.58,15.22-9.86,10.47-3.17-2.07-3.09-12.2-7.13-17.07-2.64-3.19-7.4-3.11-5.15-8.54.55-1.33,2.21-2.2,2.98-3.38,2.95-4.54,3.3-11.42,3.57-16.81.9-18.23,1.32-44.44-.04-62.44-.3-3.95-1.47-8.79-2.72-12.56-1.64-4.95-7.73-12.84,1.76-13.9,9.29-1.04,20.29.99,29.97.68,5.91-.19,12.33-1.52,18.31-1.16,7.24,1.66,8.7,19.7,8.08,25.65-.46,4.44-2.41,8.57-7.62,6.36-2.07-.88-5.83-7.96-8.97-10.14-3.9-2.71-12.43-5.03-14.93.28-1.59,3.37-1.54,18.79.19,22.1,1.52,2.91,4.1,3.89,7.3,3.23,4.42-.91,8.19-10.25,12.05-2.85,2.31,4.43,1.89,18.69.33,23.51-.93,2.86-2.3,4.91-5.72,4.21-3.06-.63-4.08-6.66-6.85-7.83s-5.82-.31-7.26,2.27c-1.24,2.23-1.73,11.3-1.67,14.31.04,2.17.79,9.41,1.67,11.07,2.98,5.62,10.54,2.73,14.49-.06,4.52-3.19,11.54-14.74,17.16-13.16,4,1.13,3.28,12.65,3.04,16.16-1.23,17.83-11.83,28.53-10.21,49.64.54,6.98,5.79,19.99-.32,25.18-3.9,3.31-10.06,3.63-12.85-1.18-3.36-5.82-.06-12.26.41-18.26.63-8.17.39-29.15-7.92-33.45-2.9-1.5-5.98-1.48-8.41.88Z"/>
    <path class="cls-5" d="M433.51,31.21c6.34-.29,11.89,2.73,17.08,2.98,2.53.12,5-.97,8.14-.55,11.89,1.6,11.99,24.65,9.11,33.2-1.95,5.81-6,9.38-12.38,7-7.89-2.95-8.79-27.7-21.41-19.14s-10.6,47.48-4.36,59.56c3.88,7.51,11.36,8.33,18.16,3.92,5.95-3.87,7.54-18.18,16.52-13.76,8.02,3.94,1.13,22.62-2.58,28.34-7.81,12.05-24.1,16.99-25.54,32.42-.63,6.7,2.34,16.09-4.72,20.11-3.21,1.83-8.54,2.08-11.51-.22-5.57-4.32-1.24-21.43-1.66-28.28-1.08-17.99-14.03-23.28-19.15-38.81-8.78-26.63-1.98-85.14,34.3-86.79Z"/>
    <path class="cls-5" d="M754.16,187.27c16.25.26,32.53.73,48.79.45,5.01-.08,11.33-2.67,14.47,2.85,3.23,5.68,6.45,26.32,3.57,32.03-1.74,3.45-6.81,3.6-9.12.68-2.81-3.55-4.13-19.34-11.96-16.88-3.26,1.02-3.62,6.87-3.8,9.79-.87,13.82-.71,32.86,0,46.76.27,5.22.99,11.71,3.02,16.54,1.85,4.41,8.72,10.36,1.74,13.7-5.34,2.56-26.48,1.98-32.17-.11-10.02-3.67-1.83-9.66.3-16.01,3.8-11.34,3.76-49.59,2.69-62.47-.81-9.7-6.02-11.52-11.08-2.95-1.9,3.22-3.72,10.67-6.01,12.46-2.53,1.98-6.78,1.63-8.36-1.43-2.95-5.71.96-24.85,3.81-30.81.94-1.96,1.83-3.91,4.11-4.58Z"/>
    <path class="cls-5" d="M918.72,122.52c4.6-4.37,7.96-15.38,11.09-17.89,4.73-3.81,8.41,1.1,8.87,5.71.85,8.39-.92,29.3-5.84,36.18-7.57,10.6-19.36.74-29.5,1.03-7.2.2-20.89,8.66-26.39,3.51-7.07-6.61,1.82-24.67,2.5-33.1,1.34-16.41,2.21-45.11-.06-61.06-1.28-8.94-3.11-8.41-6.83-14.83-2.81-4.86-1.07-9.27,4.64-9.8,6.8-.62,15.31.09,22.35.06,3.42-.01,9.09-1.73,10.77,3.19,1.84,5.39-2,7.43-3.78,11.44-1.31,2.94-1.66,6.12-2.22,9.24,1,17.88-.53,37.05.63,54.76.32,4.9,1.17,16.25,8.43,14.85,1.29-.25,4.34-2.33,5.35-3.29Z"/>
    <path class="cls-5" d="M710.21,187.32c5.66-.64,14.71-.51,20.5-.18,2.64.15,7.93.46,9.77,2.18,5.26,4.92-1.89,10.62-3.64,15.39-2.37,6.42-1.27,13.01-1.5,19.68-.54,15.18-1.5,32.15-.02,47.22.67,6.84,2.54,7.42,5.17,12.75,3.76,7.6-4.19,9.98-10.31,10.37-5.7.37-15.52.14-21.16-.62-2.34-.32-6.15-2.16-6.72-4.69-.95-4.21,2.12-5.99,3.79-9.01,2.25-4.07,2.87-9.07,3.15-13.69.89-14.79.94-35.76.03-50.53-.55-8.97-2.09-10.61-6.1-17.79-3.71-6.64.43-10.32,7.05-11.08Z"/>
  </g>
  <g>
    <circle class="cls-5" cx="232.19" cy="149.88" r="40.37"/>
    <path class="cls-5" d="M374.39,193.44c-9.4-19.36-15.23-32.22-19.33-40.81.02-.91.03-1.83.03-2.75,0-13.21-2.07-25.93-5.89-37.87l14.47-17.59c1.42-1.72,1.52-4.17.24-6.01l-30.63-44.09c-1.32-1.89-3.76-2.64-5.91-1.79l-21.42,8.41c-10.94-8.31-23.29-14.84-36.64-19.18l-4.36-19.12c-.52-2.27-2.53-3.87-4.86-3.87h-58.66c-2.13,0-4.02,1.35-4.71,3.37l-7.06,20.59c-11.49,4.04-22.2,9.73-31.86,16.78-.82.18-1.68.16-2.5-.09l-20.7-6.18c-1.99-.59-4.13.11-5.39,1.76l-31.3,41.17c-1.22,1.61-1.35,3.79-.33,5.53l13.96,23.87c-3.13,10.9-4.81,22.41-4.81,34.32,0,4.73.27,9.4.79,14-3.98,8.46-9.43,20.32-17.54,37.04-17.08,35.19-25.65,50.06-19.26,65.83.9,2.22,4.97,11.78,13.85,14.22,8.2,2.25,16.82-2.58,21.55-7.7,5.37-5.81,4.93-11.13,8.47-24.63,3.37-12.86,5.37-21.6,10.01-27.71.8-1.05,1.63-2.01,2.5-2.89,5.22,7.94,11.33,15.25,18.19,21.78-2.51,23.63-4.71,52.46,9.52,64.7,5.22,4.49,13.96,8.23,20.01,5.39,11.23-5.28,2.33-28.09,11.94-43.93,13.72,5.22,28.59,8.09,44.14,8.09s30.35-2.85,44.04-8.05c9.57,15.84.7,38.62,11.92,43.89,6.05,2.85,14.79-.9,20.01-5.39,14.21-12.21,12.04-40.97,9.53-64.59,8.64-8.2,16.09-17.64,22.09-28.02.43.49.85,1,1.25,1.54,4.64,6.11,6.64,14.85,10.01,27.71,3.53,13.5,3.1,18.82,8.47,24.63,4.73,5.11,13.35,9.95,21.55,7.7,8.89-2.44,12.95-12,13.85-14.22,6.39-15.77-2.18-30.64-19.26-65.83ZM230.92,235.93c-47.53,0-86.05-38.53-86.05-86.05s38.53-86.05,86.05-86.05,86.05,38.53,86.05,86.05-38.53,86.05-86.05,86.05Z"/>
  </g>
  <g class="cls-6">
    <path class="cls-1" d="M496.54,252.24c0,1.48-1.2,2.68-2.68,2.68s-3.92-1.68-3.92-3.16,2.43-2.21,3.92-2.21,2.68,1.2,2.68,2.69ZM504.82,229.93c-2.92,1.69-7.76,2.94-8.64,1.42s2.53-5.26,5.45-6.94c2.92-1.68,6-1.81,6.88-.29s-.77,4.13-3.69,5.81ZM446.01,197.22c.8,2.18,1.09,5.61-.05,6.04-1.14.42-3.28-2.34-4.08-4.52-.8-2.18-.53-4.29.61-4.7,1.14-.42,2.71,1.01,3.52,3.19ZM485.04,246.35c7.95,7.11-1.97,5.4-1.59,8.14,2.85,20.6,34.22,22.02,26.73,30.43-7.48,8.41-15.61-20.27-37.53-19.3-21.78.15-14.3,25.73-26.09,21.09-9.53-5.24,8.72-14.43-1.9-28.93-9.72-13.13-28.64,1.32-28.95-9.36-.32-10.69,22.27,6.56,31.23-16.16,8.51-12.49-2.71-19.53,2.71-20.92s1.98,11.38,15.09,14.08c4.9,1.01,8.36-10.06,12.98-6.99,4.62,3.07-.84,8.72,1.36,13.11,2.78,5.54,10.78-2.49,12.84,2.4,2.06,4.89-9.29,8.32-6.9,12.4,2.48,0,10.08,0,0,0Z"/>
  </g>
  <g class="cls-4">
    <path class="cls-3" d="M853.89,247.35c0,1.48,1.2,2.68,2.68,2.68s3.92-1.68,3.92-3.16-2.43-2.21-3.92-2.21-2.68,1.2-2.68,2.69ZM845.61,225.04c2.92,1.69,7.76,2.94,8.64,1.42s-2.53-5.26-5.45-6.94c-2.92-1.68-6-1.81-6.88-.29s.77,4.13,3.69,5.81ZM904.42,192.33c-.8,2.18-1.09,5.61.05,6.04,1.14.42,3.28-2.34,4.08-4.52.8-2.18.53-4.29-.61-4.7-1.14-.42-2.71,1.01-3.52,3.19ZM865.39,241.46c-7.95,7.11,1.97,5.4,1.59,8.14-2.85,20.6-34.22,22.02-26.73,30.43,7.48,8.41,15.61-20.27,37.53-19.3,21.78.15,14.3,25.73,26.09,21.09,9.53-5.24-8.72-14.43,1.9-28.93,9.72-13.13,28.64,1.32,28.95-9.36.32-10.69-22.27,6.56-31.23-16.16-8.51-12.49,2.71-19.53-2.71-20.92s-1.98,11.38-15.09,14.08c-4.9,1.01-8.36-10.06-12.98-6.99-4.62,3.07.84,8.72-1.36,13.11-2.78,5.54-10.78-2.49-12.84,2.4-2.06,4.89,9.29,8.32,6.9,12.4-2.48,0-10.08,0,0,0Z"/>
  </g>
</svg>