<?xml version="1.0" encoding="UTF-8"?>
<svg id="_圖層_1" data-name="圖層 1" xmlns="http://www.w3.org/2000/svg" viewBox="0 0 1000 1000">
  <defs>
    <style>
      .cls-1 {
        fill: #ae5922;
      }
    </style>
  </defs>
  <circle class="cls-1" cx="500" cy="471.5" r="115.56"/>
  <path class="cls-1" d="M907.09,596.21c-26.91-55.44-43.6-92.25-55.33-116.84.06-2.62.1-5.24.1-7.87,0-37.81-5.93-74.23-16.86-108.42l41.41-50.35c4.05-4.93,4.34-11.95.7-17.19l-87.68-126.21c-3.77-5.42-10.77-7.55-16.92-5.14l-61.33,24.07c-31.31-23.78-66.68-42.48-104.89-54.9l-12.47-54.74c-1.48-6.49-7.25-11.09-13.9-11.09h-167.94c-6.09,0-11.51,3.87-13.49,9.63l-20.21,58.95c-32.89,11.58-63.55,27.85-91.2,48.03-2.36.52-4.82.45-7.16-.25l-59.27-17.69c-5.69-1.7-11.83.31-15.43,5.03l-89.61,117.86c-3.49,4.6-3.87,10.85-.96,15.83l39.98,68.33c-8.95,31.2-13.76,64.16-13.76,98.24,0,13.55.79,26.92,2.26,40.07-11.38,24.22-26.99,58.18-50.22,106.03-48.9,100.74-73.44,143.3-55.13,188.46,2.58,6.35,14.22,33.72,39.66,40.71,23.48,6.45,48.16-7.39,61.7-22.04,15.37-16.63,14.12-31.87,24.24-70.51,9.64-36.8,15.36-61.84,28.65-79.33,2.28-3.01,4.68-5.75,7.16-8.27,14.96,22.73,32.43,43.66,52.07,62.36-7.2,67.66-13.48,150.2,27.26,185.22,14.96,12.86,39.96,23.58,57.29,15.42,32.15-15.12,6.67-80.43,34.19-125.78,39.27,14.94,81.86,23.15,126.38,23.15s86.89-8.16,126.08-23.03c27.4,45.34,2,110.56,34.11,125.66,17.33,8.15,42.33-2.56,57.29-15.42,40.67-34.97,34.47-117.3,27.29-184.91,24.73-23.49,46.08-50.49,63.25-80.21,1.22,1.41,2.42,2.87,3.59,4.41,13.28,17.49,19.01,42.52,28.65,79.33,10.12,38.64,8.87,53.88,24.24,70.51,13.53,14.64,38.22,28.49,61.7,22.04,25.45-6.99,37.09-34.36,39.66-40.71,18.31-45.15-6.24-87.72-55.13-188.46ZM496.36,717.87c-136.06,0-246.36-110.3-246.36-246.36s110.3-246.36,246.36-246.36,246.36,110.3,246.36,246.36-110.3,246.36-246.36,246.36Z"/>
</svg>