<svg width="32" height="15" viewBox="0 0 32 15" fill="none" xmlns="http://www.w3.org/2000/svg">
<path fill-rule="evenodd" clip-rule="evenodd" d="M7.16802 13C7.78129 12.6283 8.29673 12.1747 8.73282 11.7023C9.04506 12.325 9.67162 12.75 10.336 12.75C10.848 12.75 11.36 12.5 11.712 12.0313C11.84 12.4688 12.16 12.75 12.704 12.75C13.1123 12.75 14.0022 12.3431 14.8092 11.7403L14.72 12.1875C14.688 12.3125 14.688 12.4063 14.688 12.4688C14.72 12.6563 14.848 12.75 15.04 12.75C15.424 12.75 15.968 12.4063 16.096 11.8438L16.288 11.0625C16.512 10.0625 18.016 8.5625 18.432 8.5625C18.464 8.5625 18.528 8.59375 18.528 8.65625C18.5407 8.75547 18.4677 8.94331 18.361 9.2178C18.1989 9.6349 17.9591 10.2521 17.824 11.0625C17.76 11.3125 17.76 11.5625 17.792 11.75C17.856 12.3437 18.208 12.75 18.88 12.75C19.4551 12.75 20.7019 12.2706 21.5758 11.3118C21.6416 11.8323 21.7544 12.2749 21.92 12.5625C21.984 12.6875 22.144 12.7188 22.304 12.7188C22.496 12.7188 22.752 12.6563 23.04 12.5C23.712 12.1563 24.576 11.3438 25.408 10.1563C25.536 10.1875 25.632 10.1875 25.728 10.1875C26.0601 10.1875 26.4312 10.0731 26.7757 9.87058C26.6325 10.2929 26.5767 10.7242 26.624 11.125C26.752 12.0625 27.552 12.7813 28.416 12.7813C28.896 12.7813 29.408 12.5 29.76 12.0625C29.888 12.6562 30.272 13.2813 31.232 13.6562C31.296 13.6875 31.36 13.6875 31.424 13.6875C31.616 13.6875 31.744 13.5625 31.712 13.4063C31.712 13.3438 31.68 13.25 31.584 13.1875C31.36 13 31.104 12.6562 31.04 12.125C31.008 11.875 31.008 11.5625 31.168 11.25C31.36 10.4063 31.392 10.1563 31.392 10.0625C31.36 9.84375 31.2 9.75 31.008 9.75C30.624 9.75 30.08 10.125 29.952 10.6562C29.728 11.4687 29.152 12 28.768 12C28.288 12 28.032 11.5 27.968 10.9688C27.808 9.65625 28.64 8.0625 29.888 8.0625C30.24 8.0625 30.656 8.1875 30.688 8.5625C30.7274 8.90812 30.513 8.99419 30.3492 9.05992C30.2465 9.10117 30.1637 9.13441 30.176 9.21875C30.208 9.46875 30.624 9.53125 30.912 9.53125C31.168 9.53125 32 9.34375 31.872 8.4375C31.776 7.71875 30.976 7.375 30.08 7.375C29.0104 7.375 28.1001 7.90389 27.4802 8.63572C27.3944 8.68514 27.304 8.77348 27.2 8.87502C27.008 9.09377 26.624 9.31252 26.144 9.31252C26.08 9.31252 25.952 9.28127 25.952 9.28127C26.272 8.68752 26.496 8.06252 26.496 7.53127C26.496 6.65627 25.952 6.21877 25.344 6.21877C24.576 6.21877 23.776 6.87502 23.776 8.18752C23.776 8.96877 24.096 9.59377 24.64 9.93752C24 10.9375 23.136 11.7813 23.008 11.7813C22.9638 11.7813 22.9501 11.7366 22.9354 11.6883C22.9288 11.6667 22.9219 11.6444 22.912 11.625C22.816 11.2813 22.72 10.5938 22.72 10.1875C22.72 9.43752 22.848 8.68752 23.136 7.90627C23.168 7.81252 23.2 7.71877 23.2 7.65627C23.2 7.43752 23.04 7.34377 22.848 7.34377C22.464 7.34377 21.856 7.78127 21.696 8.25002C21.568 8.68752 21.504 9.31252 21.504 10.0625C21.504 10.2001 21.5063 10.3365 21.5109 10.4708C20.7472 11.4762 19.8049 11.8125 19.52 11.8125C19.168 11.8125 19.104 11.5 19.168 11.375C19.392 10.4688 19.68 9.4375 19.936 8.71875C20.064 8.375 20.128 8.0625 20.096 7.875C20.032 7.53125 19.808 7.375 19.488 7.375C18.72 7.375 17.504 8.125 16.704 9.15625L16.96 8.03125C16.992 7.90625 16.992 7.8125 16.992 7.75C16.96 7.53125 16.832 7.4375 16.64 7.4375C15.744 7.4375 15.584 7.875 15.488 8.3125C15.4695 8.42109 15.2148 9.70366 15.0037 10.7639C14.3209 11.3759 13.5558 11.7813 13.344 11.7813C13.088 11.7813 12.992 11.5938 12.992 11.4375C12.992 11.3296 13.0556 11.0353 13.1157 10.7573C13.16 10.5523 13.2025 10.3561 13.216 10.25C13.248 10.125 13.248 10.0313 13.248 9.96877C13.216 9.78127 13.056 9.68752 12.864 9.68752C12.48 9.68752 11.936 10.0625 11.808 10.5938C11.616 11.4063 11.04 11.9375 10.656 11.9375C10.176 11.9375 9.92003 11.4375 9.85603 10.9375C9.69603 9.81252 10.432 8.00002 11.776 8.00002C12.16 8.00002 12.544 8.12502 12.576 8.50002C12.6148 8.85952 12.4189 8.94407 12.2654 9.01032C12.1654 9.05349 12.0834 9.08889 12.096 9.18752C12.128 9.43752 12.544 9.50002 12.8 9.50002C13.088 9.50002 13.888 9.31252 13.76 8.40627C13.664 7.68752 12.896 7.31252 11.968 7.31252C9.81576 7.31252 8.38353 9.39142 8.53833 11.0394C7.99176 11.664 7.44568 12.0396 6.46402 12.5312C5.92002 12.8125 5.28002 12.9688 4.70402 12.9688C2.91202 12.9688 2.04802 11.375 1.88802 10C1.44002 6.5 4.64002 1.65625 6.84801 1.65625C7.36002 1.65625 7.80802 2.09375 7.90402 2.78125C8.03202 3.84375 8.00002 4.59375 6.88002 5.5C6.75202 5.59375 6.72002 5.75 6.78402 5.84375C6.88002 5.96875 7.20002 6 7.80802 5.6875C9.02402 5.09375 9.44001 4.1875 9.31201 3.125C9.18401 1.9375 8.12801 0.96875 6.72002 0.96875C6.01601 0.96875 5.28002 1.15625 4.60802 1.5625C1.69601 3.3125 -0.191985 7.25 0.160015 10.25C0.288015 11.2187 0.704015 12.25 1.47202 12.9688C1.98402 13.4375 2.91202 14 4.03202 14C5.24802 14 6.27202 13.5625 7.16802 13ZM25.152 8.87502C24.832 8.53127 24.576 8.00002 24.576 7.50002C24.576 7.21877 24.672 6.90627 24.896 6.90627C25.088 6.90627 25.344 7.18752 25.344 7.84377C25.344 8.18752 25.28 8.53127 25.152 8.87502Z" fill="#24BECA"/>
</svg>
